<svg xmlns="http://www.w3.org/2000/svg" viewBox="0 0 243.29 243.29"><defs><style>.cls-1{fill:#fff;}</style></defs><title>iphone3x icon copy</title><g id="Layer_1" data-name="Layer 1"><path class="cls-1" d="M82.39,101.07h79.24a2.65,2.65,0,0,1,2.65,2.65v31.65a0,0,0,0,1,0,0H79.74a0,0,0,0,1,0,0V103.72A2.65,2.65,0,0,1,82.39,101.07Z" transform="translate(-0.72 0.75) rotate(-0.35)"/><path class="cls-1" d="M152.05,96.63s-2.24-61.88-2.25-62.1a17.36,17.36,0,0,0-5.69-12.15c-4.51-3.9-9.69-2.83-14.5,0-8.48,5-19.16,9.06-26.38,15.82-5.54,5.19-11.08,15.24-11.27,23L91.07,97Z"/><path class="cls-1" d="M175.23,164.64c-.54-6.35-1.87-12.68-1.91-19a6.54,6.54,0,0,0-6.58-6.51l-89.25.55c-7.32.05-8.26,10.31-8.76,15.64C68.16,161.33,63.07,243,64,243h53.39V176.26h8.9V243h53.39C181.48,242.94,175.79,171.35,175.23,164.64Z"/></g></svg>