<svg xmlns="http://www.w3.org/2000/svg" viewBox="0 0 302.03 302.03"><defs><style>.cls-1{fill:#676767;}.cls-2{fill:#be2862;}.cls-3{fill:#df4f97;}.cls-4{fill:#4d4e4e;}.cls-5{fill:#868686;}.cls-6{fill:#383838;}.cls-7{fill:#e6e6e6;}.cls-8{fill:#d4145a;}.cls-9{fill:#ccc;}.cls-10{fill:#f2f2f2;opacity:0.76;}</style></defs><title>welcome</title><g id="Layer_1" data-name="Layer 1"><path class="cls-1" d="M55.83,83.49h61a2.65,2.65,0,0,1,2.65,2.65v24.25a0,0,0,0,1,0,0H53.18a0,0,0,0,1,0,0V86.13a2.65,2.65,0,0,1,2.65-2.65Z" transform="translate(-11.54 11.67) rotate(-7.25)"/><path class="cls-2" d="M108.88,80.51s-7.58-48-7.6-48.14a13.6,13.6,0,0,0-5.58-8.93c-3.88-2.61-7.81-1.29-11.29,1.39-6.13,4.72-14.06,8.86-19,14.81-3.83,4.56-7.19,12.91-6.61,19l2.67,27.95Z"/><path class="cls-3" d="M71.17,75.89c.35,2.18-2.81-28.25,22.85-36.46,7.14-2.28,4.84-10.83-1.2-12.91C84.69,23.71,73.5,37,68.49,42.06c-9.93,10-6.88,23.28-4,35.27A3.13,3.13,0,0,0,67.1,79.9,3.56,3.56,0,0,0,71.17,75.89Z"/><path class="cls-4" d="M148.28,232.44,142,182.33c-2.84-22.52-7.65-44.65-12.32-66.84-.9-4.25-1.09-13.64-7.58-12.86L52.6,111.46c-5.69.73-5.46,8.81-5.35,13,.61,22.8,1.88,46.14,4.61,68.75l6.07,50.15Z"/><rect class="cls-5" x="92.88" y="126.99" width="6.98" height="111.32" transform="translate(-21.24 12.9) rotate(-6.9)"/><path class="cls-6" d="M55.31,237.75H156.14a0,0,0,0,1,0,0v34.54a9.14,9.14,0,0,1-9.14,9.14H64.45a9.14,9.14,0,0,1-9.14-9.14V237.75a0,0,0,0,1,0,0Z" transform="translate(-30.41 14.58) rotate(-6.9)"/><path class="cls-7" d="M138.9,130.9H240.09a0,0,0,0,1,0,0V285a5.41,5.41,0,0,1-5.41,5.41H144.31A5.41,5.41,0,0,1,138.9,285V130.9a0,0,0,0,1,0,0Z" transform="translate(24.49 -19.69) rotate(6.36)"/><path class="cls-8" d="M147.33,166.37h81.13a0,0,0,0,1,0,0v110a7.23,7.23,0,0,1-7.23,7.23H154.57a7.23,7.23,0,0,1-7.23-7.23v-110A0,0,0,0,1,147.33,166.37Z" transform="translate(26.07 -19.42) rotate(6.36)"/><path class="cls-9" d="M154.37,72.33h94.48a3.35,3.35,0,0,1,3.35,3.35v55.9a0,0,0,0,1,0,0H151a0,0,0,0,1,0,0V75.68A3.35,3.35,0,0,1,154.37,72.33Z" transform="matrix(0.99, 0.11, -0.11, 0.99, 12.53, -21.7)"/><path class="cls-10" d="M209.33,141.61H229a3.12,3.12,0,0,1,3.12,3.12V284a3.12,3.12,0,0,1-3.12,3.12H209.33a0,0,0,0,1,0,0V141.61a0,0,0,0,1,0,0Z" transform="translate(25.09 -23.12) rotate(6.36)"/></g></svg>